<?xml version="1.0" encoding="utf-8"?>
<!-- Generator: Adobe Illustrator 21.0.0, SVG Export Plug-In . SVG Version: 6.00 Build 0)  -->
<svg version="1.1" id="Capa_1" xmlns="http://www.w3.org/2000/svg" xmlns:xlink="http://www.w3.org/1999/xlink" x="0px" y="0px"
	 viewBox="0 0 90 90" style="enable-background:new 0 0 90 90;" xml:space="preserve">
<style type="text/css">
	.st0{fill:#72C273;}
</style>
<g>
	<path id="Retweet" class="st0" d="M18.1,71.5c-1.9,0-3.4-1.5-3.4-3.4V40.7L0,40.7l20-21.9l20,21.9H25.3v20.2h15.8l10.4,10.6H18.1z
		 M90,49.3H75.3V21.9c0-1.9-1.5-3.4-3.4-3.4H38.5l10.4,10.6h15.8v20.2l-14.8,0l20,21.9L90,49.3z"/>
</g>
<g>
	<g>
		<g>
			<path class="st0" d="M149.9,58.8c-3.9,1.8-8.6,0-10.4-3.9s0-8.6,3.9-10.4c3.9-1.8,8.6,0.1,10.4,4S153.8,57,149.9,58.8z M144.6,47
				c-2.6,1.2-3.7,4.2-2.5,6.9c1.2,2.6,4.2,3.7,6.8,2.6c2.6-1.2,3.7-4.2,2.6-6.8C150.2,47,147.1,45.8,144.6,47z"/>
			<path class="st0" d="M150.1,59.3c-4.2,1.9-9.1,0-11-4.2s0-9.1,4.2-11c4.2-1.9,9.2,0.1,11.1,4.3C156.2,52.4,154.3,57.4,150.1,59.3
				z M143.7,44.9c-3.7,1.6-5.3,6-3.7,9.7s6,5.3,9.7,3.7c3.7-1.6,5.4-5.9,3.7-9.6C151.7,45,147.4,43.3,143.7,44.9z M149,56.9
				c-2.8,1.3-6.2,0-7.4-2.8c-1.3-2.8-0.1-6.3,2.8-7.5c2.8-1.3,6.2,0.1,7.5,2.9C153.1,52.3,151.9,55.6,149,56.9z M144.8,47.4
				c-2.3,1-3.4,3.8-2.3,6.2c1,2.3,3.8,3.4,6.1,2.3s3.4-3.8,2.3-6.1C149.9,47.5,147.2,46.4,144.8,47.4z"/>
		</g>
		<g>
			<path class="st0" d="M150.1,59.2c-4.1,1.9-8.9,0-10.8-4.1s-0.1-9,4-10.9c4.1-1.9,8.9,0,10.8,4.1C156,52.4,154.2,57.3,150.1,59.2z
				 M143.6,44.9c-3.8,1.7-5.5,6.1-3.8,10c1.7,3.8,6.1,5.5,10,3.8c3.8-1.7,5.5-6.1,3.8-10C151.8,44.8,147.4,43.2,143.6,44.9z
				 M149,56.7c-2.8,1.2-6.1,0-7.3-2.8c-1.2-2.8,0-6.1,2.8-7.3c2.8-1.2,6.1,0,7.3,2.8C153,52.2,151.7,55.5,149,56.7z M144.7,47.3
				c-2.4,1.1-3.5,4-2.4,6.4c1.1,2.4,4,3.5,6.4,2.4c2.4-1.1,3.5-4,2.4-6.4C150,47.3,147.1,46.3,144.7,47.3z"/>
			<path class="st0" d="M150.3,59.6c-4.3,1.9-9.5,0-11.4-4.3c-2-4.4,0-9.6,4.3-11.5c4.3-1.9,9.5,0,11.4,4.3
				C156.6,52.5,154.7,57.6,150.3,59.6z M143.8,45.3c-3.6,1.6-5.1,5.7-3.5,9.3c1.6,3.6,5.7,5.1,9.3,3.5c3.6-1.6,5.1-5.7,3.5-9.3
				C151.4,45.3,147.4,43.7,143.8,45.3z M149.2,57.1c-3,1.4-6.6,0-8-3s0-6.6,3-8c3-1.4,6.6,0,8,3S152.2,55.8,149.2,57.1z M145,47.8
				c-2.1,0.9-3.1,3.6-2.2,5.7s3.6,3.1,5.7,2.2c2.1-0.9,3.1-3.6,2.2-5.7C149.7,47.8,147.2,46.8,145,47.8z"/>
		</g>
	</g>
</g>
</svg>
