<?xml version="1.0" encoding="utf-8"?>
<!-- Generator: Adobe Illustrator 21.0.0, SVG Export Plug-In . SVG Version: 6.00 Build 0)  -->
<svg version="1.1" id="Layer_1" xmlns="http://www.w3.org/2000/svg" xmlns:xlink="http://www.w3.org/1999/xlink" x="0px" y="0px"
	 viewBox="0 0 16.4 16.3" style="enable-background:new 0 0 16.4 16.3;" xml:space="preserve">
<style type="text/css">
	.st0{fill:#FBC43E;}
</style>
<g>
	<g>
		<path class="st0" d="M8.2,15.9c-4.3,0-7.8-3.5-7.8-7.8s3.5-7.8,7.8-7.8S16,3.9,16,8.2S12.5,15.9,8.2,15.9z M8.2,3
			C5.4,3,3.1,5.3,3.1,8.2c0,2.8,2.3,5.1,5.1,5.1s5.1-2.3,5.1-5.1C13.3,5.3,11,3,8.2,3z"/>
		<path class="st0" d="M8.2,16.3c-4.5,0-8.1-3.6-8.1-8.1C0.1,3.7,3.7,0,8.2,0s8.1,3.6,8.1,8.1S12.7,16.3,8.2,16.3z M8.2,0.7
			C4.1,0.7,0.7,4,0.7,8.2c0,4.1,3.3,7.5,7.5,7.5c4.1,0,7.5-3.3,7.5-7.5C15.6,4,12.3,0.7,8.2,0.7z M8.2,13.6c-3,0-5.5-2.5-5.5-5.5
			s2.5-5.5,5.5-5.5s5.5,2.5,5.5,5.5C13.7,11.2,11.2,13.6,8.2,13.6z M8.2,3.4c-2.6,0-4.8,2.2-4.8,4.8S5.6,13,8.2,13S13,10.8,13,8.2
			C13,5.5,10.8,3.4,8.2,3.4z"/>
	</g>
</g>
</svg>
