<?xml version="1.0" encoding="utf-8"?>
<!-- Generator: Adobe Illustrator 21.0.0, SVG Export Plug-In . SVG Version: 6.00 Build 0)  -->
<svg version="1.1" id="Layer_1" xmlns="http://www.w3.org/2000/svg" xmlns:xlink="http://www.w3.org/1999/xlink" x="0px" y="0px"
	 viewBox="0 0 16.4 16.3" style="enable-background:new 0 0 16.4 16.3;" xml:space="preserve">
<style type="text/css">
	.st0{fill:#F48385;}
</style>
<g>
	<g>
		<g>
			<path class="st0" d="M8.2,15.7L0.7,8.2l7.5-7.5l7.5,7.5L8.2,15.7z M3.5,8.2l4.6,4.6l4.6-4.6L8.2,3.5L3.5,8.2z"/>
			<path class="st0" d="M8.2,16.1L0.3,8.2l7.9-7.9l7.9,7.9L8.2,16.1z M1.1,8.2l7.1,7.1l7.1-7.1L8.2,1.1L1.1,8.2z M8.1,13.2l-5-5
				l5.1-5.1L13,8.2L8.1,13.2z M3.9,8.2l4.2,4.2l4.3-4.2L8.2,3.9L3.9,8.2z"/>
		</g>
		<g>
			<path class="st0" d="M8.2,16L0.3,8.2l7.8-7.8L16,8.2L8.2,16z M1,8.2l7.2,7.2l7.2-7.2L8.2,1L1,8.2z M8.2,13.1l-5-5l5-5l5,5
				L8.2,13.1z M3.9,8.2l4.3,4.3l4.3-4.3L8.2,3.8L3.9,8.2z"/>
			<path class="st0" d="M8.2,16.4l-8.3-8.2L8.1,0l8.3,8.2L8.2,16.4z M1.4,8.2L8.2,15L15,8.2L8.2,1.4L1.4,8.2z M8.2,13.5L2.8,8.1
				l5.4-5.4l5.4,5.4L8.2,13.5z M4.3,8.2l3.9,3.9l3.9-3.9l-3.9-4L4.3,8.2z M8.7,3.9l4.1,4.2l0,0L8.7,3.9z M3.6,8.1L3.6,8.1l4.2-4.2
				L3.6,8.1z"/>
		</g>
	</g>
</g>
</svg>
