<?xml version="1.0" encoding="utf-8"?>
<!-- Generator: Adobe Illustrator 21.0.0, SVG Export Plug-In . SVG Version: 6.00 Build 0)  -->
<svg version="1.1" id="Layer_1" xmlns="http://www.w3.org/2000/svg" xmlns:xlink="http://www.w3.org/1999/xlink" x="0px" y="0px"
	 viewBox="0 0 426.7 426.7" style="enable-background:new 0 0 426.7 426.7;" xml:space="preserve">
<style type="text/css">
	.st0{fill:#81AFDE;}
</style>
<path class="st0" d="M282.5,43.6c-24,0-43.6-19.6-43.6-43.6h-51.2v247.7c-13.1-6.8-27.9-10.6-43.6-10.6c-52.3,0-94.8,42.5-94.8,94.8
	s42.5,94.8,94.8,94.8s94.8-42.5,94.8-94.8c0,0,0-0.1,0-0.1V84.2c13.1,6.8,27.9,10.6,43.6,10.6c24,0,43.6,19.6,43.6,43.6h51.2
	C377.3,86.1,334.8,43.6,282.5,43.6z M144.1,375.5c-24,0-43.6-19.6-43.6-43.6c0-24,19.6-43.6,43.6-43.6c24,0,43.6,19.5,43.6,43.6v0h0
	c0,0,0,0,0,0C187.7,355.9,168.2,375.5,144.1,375.5z"/>
</svg>
