<?xml version="1.0" encoding="utf-8"?>
<!-- Generator: Adobe Illustrator 21.0.0, SVG Export Plug-In . SVG Version: 6.00 Build 0)  -->
<svg version="1.1" id="Layer_1" xmlns="http://www.w3.org/2000/svg" xmlns:xlink="http://www.w3.org/1999/xlink" x="0px" y="0px"
	 viewBox="0 0 381.3 185.5" style="enable-background:new 0 0 381.3 185.5;" xml:space="preserve">
<style type="text/css">
	.st0{fill:#313131;}
	.st1{fill:none;stroke:#313131;stroke-width:4;stroke-miterlimit:10;}
	.st2{fill:none;stroke:#313131;stroke-width:9;stroke-miterlimit:10;}
	.st3{fill:#82B0DE;}
	.st4{fill:#72C273;}
	.st5{fill:#F48385;}
	.st6{fill:#FAC43D;}
</style>
<g>
	<g>
		<g>
			<path class="st0" d="M113.7,56.8c-19.8,0-35.9,16.1-35.9,35.9s16.1,35.9,35.9,35.9s35.9-16.1,35.9-35.9S133.6,56.8,113.7,56.8z
				 M130.3,113.8c-0.4,0.8-1.3,1.3-2.2,1.3c-0.4,0-0.8-0.1-1.2-0.3c-5.8-3.2-12.3-4.8-18.9-4.8c-4,0-7.9,0.6-11.6,1.7
				c-1.3,0.4-2.7-0.3-3.1-1.6c-0.4-1.3,0.3-4.1,1.6-4.5c4.2-1.3,8.6-2,13.1-2c7.4,0,14.8,1.9,21.3,5.5
				C130.6,109.8,131,112.6,130.3,113.8z M134.9,100.3c-0.5,1-1.5,2.6-2.6,2.6c-0.5,0-0.9-0.1-1.3-0.3c-7.1-3.7-14.8-5.6-22.9-5.6
				c-4.5,0-8.9,0.6-13.1,1.8c-1.5,0.4-3.1-0.5-3.5-2c-0.4-1.5,0.5-4.2,2-4.6c4.8-1.3,9.7-2,14.7-2c8.9,0,17.7,2.2,25.6,6.2
				C135.1,97.2,135.6,98.9,134.9,100.3z M136.8,89.5c-0.5,0-1-0.1-1.5-0.3c-8.5-4.2-17.7-6.4-27.2-6.4c-5,0-10,0.6-14.8,1.8
				c-1.8,0.4-3.6-0.6-4-2.4c-0.4-1.8,0.6-3.9,2.4-4.3c5.3-1.3,10.8-2,16.4-2c10.6,0,20.8,2.4,30.2,7.1c1.6,0.8,2.3,2.8,1.5,4.4
				C139.2,88.4,138,89.5,136.8,89.5z"/>
		</g>
	</g>
</g>
<g>
	<line class="st1" x1="194.8" y1="98.4" x2="183.6" y2="87.1"/>
	<line class="st1" x1="183.6" y1="98.4" x2="194.8" y2="87.1"/>
</g>
<polyline class="st2" points="256.9,66.8 230.2,92.8 256.9,118.8 "/>
<polyline class="st2" points="272.5,118.8 299.2,92.8 272.5,66.8 "/>
<g>
	<g>
		<g>
			<path class="st3" d="M33,117.1c-4.3,0-7.8-3.5-7.8-7.8s3.5-7.8,7.8-7.8s7.8,3.6,7.8,7.9C40.8,113.7,37.3,117.1,33,117.1z
				 M33,104.2c-2.8,0-5.1,2.3-5.1,5.2c0,2.8,2.3,5.1,5.1,5.1s5.1-2.3,5.1-5.1C38.1,106.5,35.8,104.2,33,104.2z"/>
			<path class="st3" d="M33,117.7c-4.6,0-8.3-3.7-8.3-8.3s3.7-8.3,8.3-8.3s8.3,3.8,8.3,8.4C41.3,114,37.6,117.7,33,117.7z M33,102.1
				c-4,0-7.3,3.3-7.3,7.3s3.3,7.3,7.3,7.3s7.3-3.2,7.3-7.2C40.3,105.4,37,102.1,33,102.1z M33,115.1c-3.1,0-5.6-2.5-5.6-5.6
				c0-3.1,2.5-5.7,5.6-5.7s5.6,2.6,5.6,5.7C38.6,112.5,36.1,115.1,33,115.1z M33,104.7c-2.5,0-4.6,2.1-4.6,4.7
				c0,2.5,2.1,4.6,4.6,4.6s4.6-2.1,4.6-4.6C37.6,106.9,35.5,104.7,33,104.7z"/>
		</g>
		<g>
			<path class="st3" d="M33,117.5c-4.5,0-8.1-3.6-8.1-8.1c0-4.5,3.6-8.2,8.1-8.2s8.1,3.6,8.1,8.1S37.5,117.5,33,117.5z M33,101.9
				c-4.1,0-7.5,3.3-7.5,7.5c0,4.1,3.3,7.5,7.5,7.5c4.1,0,7.5-3.3,7.5-7.5C40.4,105.2,37.1,101.9,33,101.9z M33,114.8
				c-3,0-5.5-2.5-5.5-5.5s2.5-5.5,5.5-5.5s5.5,2.5,5.5,5.5C38.5,112.4,36,114.8,33,114.8z M33,104.6c-2.6,0-4.8,2.2-4.8,4.8
				c0,2.6,2.2,4.8,4.8,4.8s4.8-2.2,4.8-4.8C37.8,106.7,35.6,104.6,33,104.6z"/>
			<path class="st3" d="M33,118.1c-4.7,0-8.6-3.9-8.6-8.6c0-4.8,3.9-8.7,8.6-8.7s8.6,3.9,8.6,8.6C41.6,114.1,37.7,118.1,33,118.1z
				 M33,102.4c-3.9,0-7,3.1-7,7s3.1,7,7,7s7-3.1,7-7C39.9,105.5,36.8,102.4,33,102.4z M33,115.4c-3.3,0-6-2.7-6-6s2.7-6,6-6
				s6,2.7,6,6C39,112.7,36.3,115.4,33,115.4z M33,105.2c-2.3,0-4.3,2-4.3,4.3s2,4.3,4.3,4.3s4.3-2,4.3-4.3
				C37.3,107.1,35.4,105.2,33,105.2z"/>
		</g>
	</g>
</g>
<g>
	<g>
		<g>
			<path class="st4" d="M225.5,17.5c-4.3,0-7.8-3.5-7.8-7.8s3.5-7.8,7.8-7.8c4.3,0,7.8,3.6,7.8,7.9S229.8,17.5,225.5,17.5z
				 M225.5,4.6c-2.8,0-5.1,2.3-5.1,5.2c0,2.8,2.3,5.1,5.1,5.1c2.8,0,5.1-2.3,5.1-5.1C230.6,6.9,228.3,4.6,225.5,4.6z"/>
			<path class="st4" d="M225.5,18c-4.6,0-8.3-3.7-8.3-8.3s3.7-8.3,8.3-8.3s8.3,3.8,8.3,8.4C233.8,14.3,230.1,18,225.5,18z
				 M225.5,2.4c-4,0-7.3,3.3-7.3,7.3s3.3,7.3,7.3,7.3s7.3-3.2,7.3-7.2C232.8,5.7,229.6,2.4,225.5,2.4z M225.5,15.4
				c-3.1,0-5.6-2.5-5.6-5.6c0-3.1,2.5-5.7,5.6-5.7s5.6,2.6,5.6,5.7C231.1,12.9,228.6,15.4,225.5,15.4z M225.5,5.1
				c-2.5,0-4.6,2.1-4.6,4.7c0,2.5,2.1,4.6,4.6,4.6c2.5,0,4.6-2.1,4.6-4.6C230.1,7.2,228.1,5.1,225.5,5.1z"/>
		</g>
		<g>
			<path class="st4" d="M225.5,17.9c-4.5,0-8.1-3.6-8.1-8.1s3.6-8.2,8.1-8.2s8.1,3.6,8.1,8.1S230,17.9,225.5,17.9z M225.5,2.3
				c-4.1,0-7.5,3.3-7.5,7.5c0,4.1,3.3,7.5,7.5,7.5c4.1,0,7.5-3.3,7.5-7.5C232.9,5.6,229.6,2.3,225.5,2.3z M225.5,15.2
				c-3,0-5.5-2.5-5.5-5.5s2.5-5.5,5.5-5.5s5.5,2.5,5.5,5.5C231,12.8,228.5,15.2,225.5,15.2z M225.5,5c-2.6,0-4.8,2.2-4.8,4.8
				s2.2,4.8,4.8,4.8c2.6,0,4.8-2.2,4.8-4.8C230.3,7.1,228.1,5,225.5,5z"/>
			<path class="st4" d="M225.5,18.4c-4.7,0-8.6-3.9-8.6-8.6c0-4.8,3.9-8.7,8.6-8.7s8.6,3.9,8.6,8.6
				C234.1,14.5,230.3,18.4,225.5,18.4z M225.5,2.8c-3.9,0-7,3.1-7,7s3.1,7,7,7s7-3.1,7-7C232.4,5.9,229.4,2.8,225.5,2.8z
				 M225.5,15.7c-3.3,0-6-2.7-6-6s2.7-6,6-6s6,2.7,6,6C231.5,13,228.8,15.7,225.5,15.7z M225.5,5.5c-2.3,0-4.3,2-4.3,4.3
				c0,2.3,2,4.3,4.3,4.3s4.3-2,4.3-4.3C229.8,7.4,227.9,5.5,225.5,5.5z"/>
		</g>
	</g>
</g>
<g>
	<g>
		<g>
			<path class="st5" d="M338.6,78c-4.3,0-7.8-3.5-7.8-7.8c0-4.3,3.5-7.8,7.8-7.8c4.3,0,7.8,3.6,7.8,7.9
				C346.4,74.6,342.9,78,338.6,78z M338.6,65.1c-2.8,0-5.1,2.3-5.1,5.2c0,2.8,2.3,5.1,5.1,5.1c2.8,0,5.1-2.3,5.1-5.1
				C343.7,67.4,341.4,65.1,338.6,65.1z"/>
			<path class="st5" d="M338.6,78.5c-4.6,0-8.3-3.7-8.3-8.3s3.7-8.3,8.3-8.3c4.6,0,8.3,3.8,8.3,8.4
				C346.9,74.8,343.1,78.5,338.6,78.5z M338.6,62.9c-4,0-7.3,3.3-7.3,7.3c0,4,3.3,7.3,7.3,7.3s7.3-3.2,7.3-7.2
				C345.9,66.2,342.6,62.9,338.6,62.9z M338.6,75.9c-3.1,0-5.6-2.5-5.6-5.6c0-3.1,2.5-5.7,5.6-5.7s5.6,2.6,5.6,5.7
				C344.2,73.3,341.6,75.9,338.6,75.9z M338.6,65.6c-2.5,0-4.6,2.1-4.6,4.7c0,2.5,2.1,4.6,4.6,4.6c2.5,0,4.6-2.1,4.6-4.6
				C343.2,67.7,341.1,65.6,338.6,65.6z"/>
		</g>
		<g>
			<path class="st5" d="M338.6,78.4c-4.5,0-8.1-3.6-8.1-8.1s3.6-8.2,8.1-8.2s8.1,3.6,8.1,8.1C346.7,74.7,343.1,78.4,338.6,78.4z
				 M338.6,62.8c-4.1,0-7.5,3.3-7.5,7.5c0,4.1,3.3,7.5,7.5,7.5c4.1,0,7.5-3.3,7.5-7.5C346,66.1,342.7,62.8,338.6,62.8z M338.6,75.7
				c-3,0-5.5-2.5-5.5-5.5s2.5-5.5,5.5-5.5s5.5,2.5,5.5,5.5C344.1,73.3,341.6,75.7,338.6,75.7z M338.6,65.5c-2.6,0-4.8,2.2-4.8,4.8
				s2.2,4.8,4.8,4.8s4.8-2.2,4.8-4.8C343.4,67.6,341.2,65.5,338.6,65.5z"/>
			<path class="st5" d="M338.6,78.9c-4.7,0-8.6-3.9-8.6-8.6c0-4.8,3.9-8.7,8.6-8.7s8.6,3.9,8.6,8.6C347.2,75,343.3,78.9,338.6,78.9z
				 M338.6,63.3c-3.9,0-7,3.1-7,7s3.1,7,7,7s7-3.1,7-7C345.5,66.3,342.4,63.3,338.6,63.3z M338.6,76.2c-3.3,0-6-2.7-6-6s2.7-6,6-6
				s6,2.7,6,6C344.6,73.5,341.9,76.2,338.6,76.2z M338.6,66c-2.3,0-4.3,2-4.3,4.3c0,2.3,2,4.3,4.3,4.3s4.3-2,4.3-4.3
				C342.9,67.9,340.9,66,338.6,66z"/>
		</g>
	</g>
</g>
<polygon class="st5" points="162.4,177.9 162.7,177.5 158.2,173 162.6,168.5 159.5,165.4 155,169.8 150.5,165.3 147.3,168.5 
	151.8,173 147.2,177.6 150.4,180.8 155,176.2 159.5,180.7 162.3,178 162,177.7 162,177.7 "/>
<g>
	<g>
		<g>
			<g>
				
					<rect x="280" y="135.3" transform="matrix(0.7071 -0.7071 0.7071 0.7071 -18.7427 240.8829)" class="st6" width="2.8" height="15.6"/>
				<path class="st6" d="M285.9,150.3l-11.7-11.7l2.7-2.7l11.7,11.7L285.9,150.3z M275.6,138.5l10.3,10.3l1.3-1.3l-10.3-10.3
					L275.6,138.5z"/>
			</g>
			<g>
				<path class="st6" d="M288.4,147.7l-2.4,2.4l-11.5-11.5l2.5-2.5L288.4,147.7L288.4,147.7z M286,149.1l1.5-1.5l-10.5-10.5
					l-1.5,1.5L286,149.1z"/>
				<path class="st6" d="M286,150.8l-12.2-12.2l3.2-3.2l12.2,12.2L286,150.8z M276.2,138.5l9.8,9.8l0.8-0.8l-9.8-9.8L276.2,138.5z"
					/>
			</g>
		</g>
	</g>
	<g>
		<g>
			<g>
				
					<rect x="273.7" y="141.7" transform="matrix(0.7071 -0.7071 0.7071 0.7071 -18.772 240.9536)" class="st6" width="15.6" height="2.8"/>
				<path class="st6" d="M276.9,150.3l-2.7-2.7l11.7-11.7l2.7,2.7L276.9,150.3z M275.7,147.7l1.3,1.3l10.3-10.3l-1.3-1.3
					L275.7,147.7z"/>
			</g>
			<g>
				<path class="st6" d="M288.4,138.6l-11.5,11.5l-2.5-2.5l11.5-11.5L288.4,138.6z M276.9,149.1l10.5-10.5l-1.5-1.5l-10.5,10.5
					L276.9,149.1z"/>
				<path class="st6" d="M276.9,150.8l-3.2-3.2l12.2-12.2l3.2,3.2L276.9,150.8z M276.1,147.7l0.8,0.8l9.8-9.8l-0.8-0.8L276.1,147.7z
					"/>
			</g>
		</g>
	</g>
</g>
<g>
	<g>
		<g>
			<g>
				
					<rect x="100.9" y="19.8" transform="matrix(0.7071 -0.7071 0.7071 0.7071 10.4895 80.4365)" class="st6" width="2.8" height="15.6"/>
				<path class="st6" d="M106.9,34.8L95.1,23l2.7-2.7l11.7,11.7L106.9,34.8z M96.5,23l10.3,10.3l1.3-1.3L97.8,21.8L96.5,23z"/>
			</g>
			<g>
				<path class="st6" d="M109.3,32.2l-2.4,2.4L95.4,23l2.5-2.5L109.3,32.2L109.3,32.2z M106.9,33.6l1.5-1.5L97.9,21.5L96.4,23
					L106.9,33.6z"/>
				<path class="st6" d="M106.9,35.3L94.7,23l3.2-3.2l12.2,12.2L106.9,35.3z M97.1,23l9.8,9.8l0.8-0.8l-9.8-9.8L97.1,23z"/>
			</g>
		</g>
	</g>
	<g>
		<g>
			<g>
				
					<rect x="94.6" y="26.2" transform="matrix(0.7071 -0.7071 0.7071 0.7071 10.4602 80.5073)" class="st6" width="15.6" height="2.8"/>
				<path class="st6" d="M97.9,34.8l-2.7-2.7l11.7-11.7l2.7,2.7L97.9,34.8z M96.6,32.2l1.3,1.3l10.3-10.3l-1.3-1.3L96.6,32.2z"/>
			</g>
			<g>
				<path class="st6" d="M109.3,23.1L97.8,34.6l-2.5-2.5l11.5-11.5L109.3,23.1z M97.8,33.6l10.5-10.5l-1.5-1.5L96.3,32.2L97.8,33.6z
					"/>
				<path class="st6" d="M97.8,35.3l-3.2-3.2l12.2-12.2l3.2,3.2L97.8,35.3z M97,32.2l0.8,0.8l9.8-9.8l-0.8-0.8L97,32.2z"/>
			</g>
		</g>
	</g>
</g>
</svg>
